<svg width="20" height="16" viewBox="0 0 20 16" fill="none" xmlns="http://www.w3.org/2000/svg">
<path d="M0.954062 7.20414L7.70406 0.454142C7.91541 0.242797 8.20205 0.124065 8.50094 0.124065C8.79982 0.124065 9.08647 0.242797 9.29781 0.454142C9.50916 0.665486 9.62789 0.95213 9.62789 1.25102C9.62789 1.5499 9.50916 1.83655 9.29781 2.04789L4.46875 6.87508L18.25 6.87508C18.5484 6.87508 18.8345 6.99361 19.0455 7.20459C19.2565 7.41556 19.375 7.70171 19.375 8.00008C19.375 8.29845 19.2565 8.5846 19.0455 8.79558C18.8345 9.00655 18.5484 9.12508 18.25 9.12508L4.46875 9.12508L9.29594 13.9551C9.50728 14.1664 9.62601 14.4531 9.62601 14.752C9.62601 15.0508 9.50728 15.3375 9.29594 15.5488C9.08459 15.7602 8.79795 15.8789 8.49906 15.8789C8.20018 15.8789 7.91353 15.7602 7.70219 15.5488L0.952188 8.79883C0.84729 8.69417 0.764099 8.56982 0.707396 8.43293C0.650692 8.29603 0.621593 8.14927 0.621767 8.0011C0.621941 7.85292 0.651386 7.70623 0.708412 7.56947C0.765436 7.4327 0.848919 7.30855 0.954062 7.20414Z" fill="#000002"/>
</svg>
