<svg width="24" height="24" viewBox="0 0 24 24" fill="none" xmlns="http://www.w3.org/2000/svg">
<path d="M4.4541 6.04602C4.24276 5.83467 4.12403 5.54803 4.12403 5.24914C4.12403 4.95026 4.24276 4.66361 4.4541 4.45227C4.66545 4.24092 4.95209 4.12219 5.25098 4.12219C5.54986 4.12219 5.83651 4.24092 6.04785 4.45227L12 10.4063L17.9541 4.45414C18.1654 4.2428 18.4521 4.12407 18.751 4.12407C19.0499 4.12407 19.3365 4.2428 19.5479 4.45414C19.7592 4.66549 19.8779 4.95213 19.8779 5.25102C19.8779 5.5499 19.7592 5.83655 19.5479 6.04789L13.5938 12.0001L19.546 17.9541C19.7573 18.1655 19.8761 18.4521 19.8761 18.751C19.8761 19.0499 19.7573 19.3365 19.546 19.5479C19.3346 19.7592 19.048 19.878 18.7491 19.878C18.4502 19.878 18.1636 19.7592 17.9522 19.5479L12 13.5938L6.04598 19.5488C5.83463 19.7602 5.54799 19.8789 5.2491 19.8789C4.95022 19.8789 4.66357 19.7602 4.45223 19.5488C4.24088 19.3375 4.12215 19.0508 4.12215 18.752C4.12215 18.4531 4.24088 18.1664 4.45223 17.9551L10.4063 12.0001L4.4541 6.04602Z" fill="#303030"/>
</svg>
