<svg width="26" height="26" viewBox="0 0 26 26" fill="none" xmlns="http://www.w3.org/2000/svg">
<g filter="url(#filter0_b_295_6340)">
<rect width="26" height="26" rx="13" fill="#747480" fill-opacity="0.08"/>
<path d="M8.03558 16.7651C7.72366 17.077 7.71729 17.6309 8.04195 17.9555C8.37296 18.2802 8.92678 18.2738 9.23234 17.9682L13.0008 14.1997L16.763 17.9619C17.0813 18.2802 17.6287 18.2802 17.9534 17.9555C18.278 17.6245 18.278 17.0834 17.9597 16.7651L14.1976 13.003L17.9597 9.23448C18.278 8.9162 18.2844 8.36875 17.9534 8.04409C17.6287 7.71944 17.0813 7.71944 16.763 8.03773L13.0008 11.7999L9.23234 8.03773C8.92678 7.72581 8.3666 7.71308 8.04195 8.04409C7.71729 8.36875 7.72366 8.92893 8.03558 9.23448L11.7977 13.003L8.03558 16.7651Z" fill="#3C3C43" fill-opacity="0.6"/>
</g>
<defs>
<filter id="filter0_b_295_6340" x="-54.3656" y="-54.3656" width="134.731" height="134.731" filterUnits="userSpaceOnUse" color-interpolation-filters="sRGB">
<feFlood flood-opacity="0" result="BackgroundImageFix"/>
<feGaussianBlur in="BackgroundImageFix" stdDeviation="27.1828"/>
<feComposite in2="SourceAlpha" operator="in" result="effect1_backgroundBlur_295_6340"/>
<feBlend mode="normal" in="SourceGraphic" in2="effect1_backgroundBlur_295_6340" result="shape"/>
</filter>
</defs>
</svg>
