<svg width="18" height="18" viewBox="0 0 18 18" fill="none" xmlns="http://www.w3.org/2000/svg">
<path d="M7.34689 2.77808L12.9719 8.40308C13.0506 8.48146 13.113 8.57461 13.1556 8.67717C13.1981 8.77973 13.2201 8.88968 13.2201 9.00073C13.2201 9.11178 13.1981 9.22174 13.1556 9.3243C13.113 9.42686 13.0506 9.52 12.9719 9.59839L7.34689 15.2234C7.18839 15.3819 6.9734 15.4709 6.74924 15.4709C6.52507 15.4709 6.31009 15.3819 6.15158 15.2234C5.99307 15.0649 5.90402 14.8499 5.90402 14.6257C5.90402 14.4016 5.99307 14.1866 6.15158 14.0281L11.1796 9.00003L6.15088 3.97198C5.99237 3.81348 5.90332 3.59849 5.90332 3.37433C5.90332 3.15016 5.99237 2.93518 6.15088 2.77667C6.30939 2.61816 6.52437 2.52911 6.74853 2.52911C6.9727 2.52911 7.18768 2.61816 7.34619 2.77667L7.34689 2.77808Z" fill="#8A8A8A"/>
</svg>
