<svg width="23" height="22" viewBox="0 0 23 22" fill="none" xmlns="http://www.w3.org/2000/svg">
<path d="M19.5609 15.1198C19.084 14.2983 18.375 11.9737 18.375 8.9375C18.375 7.11414 17.6507 5.36545 16.3613 4.07614C15.072 2.78683 13.3233 2.0625 11.5 2.0625C9.67662 2.0625 7.92793 2.78683 6.63862 4.07614C5.34931 5.36545 4.62498 7.11414 4.62498 8.9375C4.62498 11.9745 3.91514 14.2983 3.43818 15.1198C3.31638 15.3287 3.25181 15.566 3.25098 15.8078C3.25015 16.0496 3.31309 16.2873 3.43346 16.497C3.55382 16.7067 3.72735 16.8809 3.93654 17.0022C4.14573 17.1234 4.3832 17.1873 4.62498 17.1875H8.13209C8.29071 17.9637 8.71253 18.6612 9.32622 19.1622C9.93991 19.6631 10.7078 19.9367 11.5 19.9367C12.2922 19.9367 13.0601 19.6631 13.6737 19.1622C14.2874 18.6612 14.7093 17.9637 14.8679 17.1875H18.375C18.6167 17.1872 18.854 17.1231 19.0631 17.0018C19.2722 16.8805 19.4456 16.7063 19.5659 16.4966C19.6861 16.2869 19.749 16.0493 19.7481 15.8076C19.7472 15.5659 19.6827 15.3286 19.5609 15.1198ZM11.5 18.5625C11.0736 18.5624 10.6577 18.4301 10.3096 18.1838C9.96145 17.9376 9.69821 17.5895 9.55607 17.1875H13.4439C13.3018 17.5895 13.0385 17.9376 12.6904 18.1838C12.3423 18.4301 11.9264 18.5624 11.5 18.5625Z" fill="#1E63E9"/>
</svg>
