<svg width="23" height="22" viewBox="0 0 23 22" fill="none" xmlns="http://www.w3.org/2000/svg">
<path d="M19.1285 15.3709L19.129 15.3717C19.2065 15.5046 19.2476 15.6555 19.2481 15.8094C19.2486 15.9376 19.2208 16.0641 19.1672 16.18L18.8072 15.5611C18.2032 14.5229 17.5 11.9829 17.5 8.9375C17.5 7.3462 16.8678 5.82008 15.7426 4.69486C14.6174 3.56964 13.0913 2.9375 11.5 2.9375C9.90868 2.9375 8.38256 3.56964 7.25734 4.69486C6.13212 5.82008 5.49998 7.3462 5.49998 8.9375C5.49998 11.9853 4.79512 14.5254 4.19276 15.5611L3.83231 16.1809C3.77844 16.0648 3.75054 15.9381 3.75098 15.8095C3.75151 15.6556 3.7926 15.5046 3.87011 15.3717L3.8706 15.3709C4.40571 14.4491 5.12498 12.0302 5.12498 8.9375C5.12498 7.24675 5.79663 5.62524 6.99218 4.42969C8.18772 3.23415 9.80923 2.5625 11.5 2.5625C13.1907 2.5625 14.8122 3.23415 16.0078 4.42969C17.2033 5.62524 17.875 7.24675 17.875 8.9375C17.875 12.0291 18.5933 14.449 19.1285 15.3709ZM18.375 16.3125H19.0912C19.0183 16.4172 18.9231 16.505 18.8122 16.5694C18.6792 16.6465 18.5281 16.6873 18.3743 16.6875H14.8679H14.4597L14.378 17.0874C14.2425 17.7506 13.882 18.3467 13.3576 18.7748C12.8331 19.2029 12.1769 19.4367 11.5 19.4367C10.823 19.4367 10.1668 19.2029 9.6424 18.7748C9.11798 18.3467 8.75751 17.7506 8.62196 17.0874L8.54024 16.6875H8.13209H4.62534C4.47148 16.6874 4.32037 16.6467 4.18724 16.5696C4.07618 16.5052 3.98091 16.4173 3.90791 16.3125H4.62498H18.375ZM9.55607 16.6875H8.84897L9.08467 17.3542C9.26126 17.8536 9.58832 18.2861 10.0208 18.592C10.4533 18.898 10.9701 19.0623 11.4998 19.0625H11.5001C12.0299 19.0623 12.5466 18.898 12.9791 18.592C13.4116 18.2861 13.7387 17.8536 13.9153 17.3542L14.151 16.6875H13.4439H9.55607Z" stroke="#303030"/>
</svg>
